<svg width="160" height="195" viewBox="0 0 160 195" fill="none" xmlns="http://www.w3.org/2000/svg">
<path d="M19.5825 81L88.5825 42L102.081 58.5C83.9134 68.1667 42.5781 91 22.5781 105C-2.42188 122.5 4.58096 116.5 1.08247 141.5C-1.71632 161.5 6.24864 164.167 10.581 163L93.081 116.5L102.081 135C83.2476 146.667 41.881 172.1 27.081 180.5C12.281 188.9 15.9153 192.333 19.5825 193C42.5825 193.5 93.2822 194.2 112.081 193C135.579 191.5 153.081 174 158.081 148.5C162.081 128.1 150.081 106 143.581 97.5C152.381 89.1 156.914 71.3333 158.081 63.5C163.281 15.1 129.581 1.33333 112.081 0.5H1.08247C1.24914 15.5 1.48247 50 1.08247 68C0.682474 86 13.2491 84.1667 19.5825 81Z" fill="#5464EC" stroke="#5464EC"/>
<circle cx="90.0781" cy="53" r="22.5" fill="white"/>
<circle cx="90.0781" cy="131" r="22.5" fill="white"/>
</svg>
